<svg width="173" height="200" viewBox="0 0 173 200" fill="none" xmlns="http://www.w3.org/2000/svg">
<path d="M0.855793 169.478C-0.409058 154.687 -0.667567 139.923 2.87771 125.376C5.19506 115.878 8.7311 107.003 15.9601 99.8704C22.9214 93.0016 31.4153 90.9492 40.6386 90.9261C76.673 90.8244 112.707 90.8522 148.746 90.8198C154.794 90.8152 155.458 90.1542 156.091 84.196C156.271 82.5088 155.952 81.4734 154.05 81.4734C152.666 81.4734 151.281 81.4318 149.891 81.4318C116.165 81.418 82.4386 81.4133 48.717 81.3995C42.3927 81.3995 42.3512 81.3856 43.4914 75.1732C45.4764 64.3569 50.0372 55.0475 59.3944 48.6871C64.4953 45.2204 70.1825 43.6164 76.3683 43.6211C102.395 43.6488 128.421 43.6303 154.443 43.6118C158.611 43.6118 160.629 41.0094 159.747 36.9048C159.184 34.2747 157.065 35.3193 155.638 35.3147C135.156 35.2315 114.674 35.25 94.1916 35.2454C84.3405 35.2454 84.1744 35.1945 86.9533 25.8297C89.5754 16.9779 94.1316 9.30478 102.058 4.07691C106.577 1.10474 111.733 0.314319 116.954 0.226495C128.19 0.0323564 139.435 0.0600905 150.671 0C155.745 0.0554681 160.822 0.268096 165.886 0.120181C170.424 -0.013867 171.86 2.40824 171.86 6.40657C171.86 15.0319 173.055 23.8698 171.564 32.227C169.829 41.9431 173.139 50.9382 172.995 60.2985C172.94 64.7683 172.88 69.2381 172.829 73.7079C172.806 75.5568 173.12 77.6138 172.012 79.1207C167.904 84.7045 170.443 90.4177 171.214 96.2002C172.474 105.681 173.826 115.683 170.507 124.526C167.793 131.751 169.358 137.949 170.216 144.601C172.215 160.099 171.846 175.483 168.135 190.695C167.271 194.236 165.323 196.884 161.049 197.503C148.977 199.255 136.818 199.621 124.687 199.764C99.2833 200.06 73.8709 200.064 48.4677 199.852C37.5595 199.759 26.6606 198.835 15.757 198.285C7.60474 198.058 5.7167 191.629 3.95791 185.661C2.41147 180.419 1.8529 174.886 0.855793 169.478ZM88.0843 140.792C109.933 140.792 131.782 140.801 153.626 140.783C158.45 140.783 159.054 139.858 157.263 135.402C154.609 128.792 149.199 127.128 142.727 127.138C118.418 127.179 94.1085 127.147 69.7994 127.138C57.4925 127.138 45.181 127.124 32.8741 127.138C26.6837 127.147 21.7397 129.268 19.3069 135.439C17.5481 139.909 18.139 140.787 23.0045 140.787C44.6962 140.801 66.3926 140.792 88.0843 140.792Z" fill="url(#paint0_linear_14_35)"/>
<defs>
<linearGradient id="paint0_linear_14_35" x1="86.5" y1="0" x2="86.5" y2="200" gradientUnits="userSpaceOnUse">
<stop stop-color="#A942FF"/>
<stop offset="1" stop-color="#DCADFF"/>
</linearGradient>
</defs>
</svg>
